<svg xmlns="http://www.w3.org/2000/svg" viewBox="0 0 16 16"><defs><style>.cls-1{fill:#1c1c1a;}.cls-2{fill:none;stroke:#c5c5c5;stroke-miterlimit:10;stroke-width:0.5px;}.cls-3{fill:#c5c5c5;}</style></defs><title>Datový zdroj 2</title><g id="Vrstva_2" data-name="Vrstva 2"><g id="Vrstva_1-2" data-name="Vrstva 1"><circle class="cls-1" cx="8" cy="8" r="8"/><path class="cls-2" d="M9.86,3.42H6.36A3.28,3.28,0,0,0,3,6.57V9.85A3.28,3.28,0,0,0,6.36,13h3.5a3.28,3.28,0,0,0,3.38-3.15V6.57A3.28,3.28,0,0,0,9.86,3.42ZM8.12,10.81A2.74,2.74,0,0,1,5.3,8.17,2.74,2.74,0,0,1,8.12,5.54,2.74,2.74,0,0,1,11,8.17,2.74,2.74,0,0,1,8.12,10.81Z"/><circle class="cls-3" cx="11.5" cy="5.5" r="0.5"/></g></g></svg>