<svg xmlns="http://www.w3.org/2000/svg" viewBox="0 0 100.63 33.54"><defs><style>.cls-1{fill:#1d1d1b;}.cls-1,.cls-2{fill-rule:evenodd;}.cls-2{fill:#b5ada5;}</style></defs><title>Datový zdroj 4</title><g id="Vrstva_2" data-name="Vrstva 2"><g id="Vrstva_1-2" data-name="Vrstva 1"><path class="cls-1" d="M12.7,24.5a7.07,7.07,0,0,1-5.78,2.55C3,27.05,0,24.5,0,20.42V8.07H7V18.9c.08,1.82.51,3.73,2.67,3.73,3.44,0,3-3.78,3-4V8.07h7V21.78c0,1.62,0,2.72.21,4.72H12.78Z"/><path class="cls-2" d="M32.1,0C30.66,4.88,29,9.89,29,15s1.66,10.11,3.1,15H27.6c-1.91-4.88-4-9.68-4-15s2.12-10.15,4-15Z"/><path class="cls-2" d="M44.33,7.94A7.51,7.51,0,0,1,47,7.52c5.47,0,7.85,4.67,7.85,9.51,0,5.39-2.72,10-8.62,10a5.68,5.68,0,0,1-1.91-.34V23c2.93,0,3.35-3.39,3.35-5.73s-.42-5.73-3.35-5.73Zm-3.4,2.72H41a6.38,6.38,0,0,1,3.31-2.72v3.61h0c-2.93,0-3.4,3.4-3.4,5.73S41.4,23,44.33,23h0v3.7A7.47,7.47,0,0,1,41,24.29h-.09v9.25H34V8.07h7Z"/><path class="cls-2" d="M55.84,30c1.48-4.88,3.1-9.89,3-15s-1.61-10.15-3-15h4.54c1.91,4.88,4,9.68,4,15s-2.12,10.11-4,15Z"/><path class="cls-1" d="M75.12,11.13h0c1.31-2.55,3.73-3.49,6.49-3.49,2.21,0,4.76,1.15,5.52,3.4a7.61,7.61,0,0,1,6.54-3.52c4,0,6.92,2.59,6.92,6.66V26.5h-7V15.67c0-1.78-.51-3.74-2.68-3.74-3.44,0-3,3.78-3,4V26.5H81V15.67c-.09-1.78-.51-3.74-2.68-3.74-3.44,0-3,3.78-3,4V26.5h-7V12.82a39.23,39.23,0,0,0-.25-4.75H75Z"/></g></g></svg>